<svg 
 xmlns="http://www.w3.org/2000/svg"
 xmlns:xlink="http://www.w3.org/1999/xlink"
 width="333px" height="17px">
<path fill-rule="evenodd"  fill="rgb(255, 255, 255)"
 d="M332.716,5.597 C332.861,7.128 332.395,9.098 329.450,12.295 C325.986,16.327 322.159,16.760 318.762,16.760 C316.273,16.760 313.886,16.023 310.724,14.771 C308.336,13.813 300.837,10.462 297.826,9.411 C295.051,8.472 293.470,8.233 291.688,8.233 L291.655,8.233 C289.603,8.233 287.501,9.853 287.501,11.843 C287.501,12.598 287.736,13.408 288.392,13.906 C288.712,14.182 288.712,14.586 288.341,15.029 C287.904,15.544 287.266,15.948 286.626,15.948 C285.852,15.948 284.827,15.158 284.827,13.629 C284.827,12.782 285.331,10.958 287.349,9.301 C289.468,7.533 291.284,6.944 293.370,6.797 C293.614,6.747 295.797,6.928 295.758,6.925 C297.069,6.944 299.054,7.257 302.333,8.564 C305.612,9.781 311.666,12.616 313.784,13.408 C316.139,14.255 318.393,14.954 320.629,14.954 C323.134,14.954 326.096,14.615 327.273,12.295 C328.744,10.158 328.433,8.960 328.082,8.717 C327.191,8.102 327.088,10.544 325.096,10.062 C324.348,9.881 323.201,8.764 322.919,7.830 C322.559,6.772 322.370,4.065 324.007,2.248 C327.875,-2.044 332.482,1.652 332.716,3.365 C332.821,4.130 332.619,4.571 332.716,5.597 ZM44.659,15.029 C44.288,14.586 44.288,14.182 44.608,13.906 C45.264,13.408 45.499,12.598 45.499,11.843 C45.499,9.853 43.397,8.233 41.345,8.233 L41.312,8.233 C39.530,8.233 37.949,8.472 35.174,9.411 C32.164,10.462 24.664,13.813 22.276,14.771 C19.115,16.023 16.727,16.760 14.238,16.760 C10.841,16.760 7.014,16.327 3.550,12.295 C0.605,9.098 0.140,7.128 0.284,5.597 C0.381,4.571 0.179,4.130 0.284,3.365 C0.518,1.652 5.125,-2.044 8.993,2.248 C10.630,4.065 10.441,6.772 10.081,7.830 C9.799,8.764 8.652,9.881 7.904,10.062 C5.912,10.544 5.810,8.102 4.918,8.717 C4.567,8.960 4.256,10.158 5.727,12.295 C6.904,14.615 9.866,14.954 12.371,14.954 C14.607,14.954 16.861,14.255 19.216,13.408 C21.334,12.616 27.388,9.781 30.667,8.564 C33.946,7.257 35.931,6.944 37.242,6.925 C37.203,6.928 39.386,6.747 39.630,6.797 C41.716,6.944 43.532,7.533 45.651,9.301 C47.669,10.958 48.173,12.782 48.173,13.629 C48.173,15.158 47.148,15.948 46.374,15.948 C45.735,15.948 45.096,15.544 44.659,15.029 Z"/>
</svg>